<svg version="1.1" baseProfile="full" xmlns="http://www.w3.org/2000/svg" xmlns:xlink="http://www.w3.org/1999/xlink" xmlns:ev="http://www.w3.org/2001/xml-events" xml:space="preserve" x="0px" y="0px" width="18px" height="24px"  viewBox="0 0 18 24" preserveAspectRatio="none" shape-rendering="geometricPrecision">"<path d="M9 0C6.56292 0 4.2949 0.830628 2.63418 2.50011C0.96957 4.17351 0 6.60376 0 9.64286C0 11.208 0.576749 12.876 1.35518 14.4364C2.14158 16.0127 3.17929 17.5679 4.19968 18.9299C5.22248 20.2952 6.24289 21.4862 7.00656 22.3351C7.3889 22.7601 7.70815 23.1008 7.93283 23.3362C8.04519 23.4539 8.13399 23.5454 8.19529 23.6081C8.22594 23.6394 8.24973 23.6636 8.26616 23.6802L8.28522 23.6994L8.29051 23.7047L8.29206 23.7063L8.29257 23.7068C8.29275 23.707 8.29289 23.7071 9 23L8.29289 23.7071C8.68342 24.0976 9.31658 24.0976 9.70711 23.7071C10.0976 23.3166 10.0976 22.6836 9.70725 22.293L9.70711 22.2929L9.70658 22.2924L9.70318 22.289L9.68795 22.2736C9.67929 22.2648 9.66777 22.2532 9.65352 22.2387C9.64499 22.23 9.63549 22.2203 9.62502 22.2096C9.56914 22.1525 9.48606 22.0669 9.37968 21.9554C9.16685 21.7324 8.8611 21.4062 8.49344 20.9975C7.75711 20.179 6.77752 19.0352 5.80032 17.7308C4.82071 16.4232 3.85842 14.9739 3.14482 13.5435C2.42325 12.0972 2 10.7563 2 9.64286C2 7.0391 2.82129 5.14792 4.05211 3.9106C5.28682 2.66937 7.0188 2 9 2C10.9812 2 12.7132 2.66937 13.9479 3.9106C15.1787 5.14792 16 7.0391 16 9.64286C16 11.1135 15.3455 12.7022 14.331 14.3492C13.4767 15.7364 12.4315 17.067 11.444 18.3242C11.2634 18.5542 11.0847 18.7817 10.9094 19.0067C10.57 19.4423 10.648 20.0707 11.0837 20.4101C11.5194 20.7495 12.1477 20.6715 12.4871 20.2358C12.6521 20.024 12.8236 19.8058 12.9997 19.5818L13.0014 19.5797C13.9868 18.3258 15.1141 16.8914 16.0339 15.3981C17.1148 13.6433 18 11.669 18 9.64286C18 6.60376 17.0304 4.17351 15.3658 2.50011C13.7051 0.830628 11.4371 0 9 0ZM9 11C10.1046 11 11 10.1046 11 9C11 7.89543 10.1046 7 9 7C7.89543 7 7 7.89543 7 9C7 10.1046 7.89543 11 9 11Z" fill="#00cdf2"/></svg>