<svg version="1.1" baseProfile="full" xmlns="http://www.w3.org/2000/svg" xmlns:xlink="http://www.w3.org/1999/xlink" xmlns:ev="http://www.w3.org/2001/xml-events" xml:space="preserve" x="0px" y="0px" width="20px" height="16px"  viewBox="0 0 20 16" preserveAspectRatio="none" shape-rendering="geometricPrecision">"<path d="M0 1C0 0.447715 0.447715 0 1 0H19C19.5523 0 20 0.447715 20 1C20 1.55228 19.5523 2 19 2H1C0.447716 2 0 1.55228 0 1ZM0 8C0 7.44772 0.447715 7 1 7H19C19.5523 7 20 7.44772 20 8C20 8.55229 19.5523 9 19 9H1C0.447716 9 0 8.55229 0 8ZM1 14C0.447715 14 0 14.4477 0 15C0 15.5523 0.447716 16 1 16H11.0513C11.6036 16 12.0513 15.5523 12.0513 15C12.0513 14.4477 11.6036 14 11.0513 14H1Z" fill="#ffffff"/></svg>