<svg width="38" height="38" viewBox="0 0 38 38" fill="none" xmlns="http://www.w3.org/2000/svg">
<path fill-rule="evenodd" clip-rule="evenodd" d="M11.4415 0.776504C13.3965 0.686504 14.0198 0.666504 18.9998 0.666504C23.9798 0.666504 24.6032 0.688171 26.5565 0.776504C28.5098 0.864837 29.8432 1.1765 31.0098 1.62817C32.2315 2.08984 33.3398 2.8115 34.2565 3.74484C35.1898 4.65984 35.9098 5.7665 36.3698 6.98984C36.8232 8.1565 37.1332 9.48984 37.2232 11.4398C37.3132 13.3982 37.3332 14.0215 37.3332 18.9998C37.3332 23.9798 37.3115 24.6032 37.2232 26.5582C37.1348 28.5082 36.8232 29.8415 36.3698 31.0082C35.9098 32.2317 35.1886 33.3402 34.2565 34.2565C33.3398 35.1898 32.2315 35.9098 31.0098 36.3698C29.8432 36.8232 28.5098 37.1332 26.5598 37.2232C24.6032 37.3132 23.9798 37.3332 18.9998 37.3332C14.0198 37.3332 13.3965 37.3115 11.4415 37.2232C9.4915 37.1348 8.15817 36.8232 6.9915 36.3698C5.76804 35.9098 4.65954 35.1886 3.74317 34.2565C2.81047 33.3409 2.08869 32.233 1.62817 31.0098C1.1765 29.8432 0.866504 28.5098 0.776504 26.5598C0.686504 24.6015 0.666504 23.9782 0.666504 18.9998C0.666504 14.0198 0.688171 13.3965 0.776504 11.4432C0.864837 9.48984 1.1765 8.1565 1.62817 6.98984C2.08938 5.76664 2.8117 4.65869 3.74484 3.74317C4.6599 2.81067 5.76729 2.08891 6.98984 1.62817C8.1565 1.1765 9.48984 0.866504 11.4398 0.776504H11.4415ZM26.4082 4.0765C24.4748 3.98817 23.8948 3.96984 18.9998 3.96984C14.1048 3.96984 13.5248 3.98817 11.5915 4.0765C9.80317 4.15817 8.83317 4.4565 8.1865 4.70817C7.3315 5.0415 6.71984 5.4365 6.07817 6.07817C5.46991 6.66992 5.0018 7.39031 4.70817 8.1865C4.4565 8.83317 4.15817 9.80317 4.0765 11.5915C3.98817 13.5248 3.96984 14.1048 3.96984 18.9998C3.96984 23.8948 3.98817 24.4748 4.0765 26.4082C4.15817 28.1965 4.4565 29.1665 4.70817 29.8132C5.0015 30.6082 5.46984 31.3298 6.07817 31.9215C6.66984 32.5298 7.3915 32.9982 8.1865 33.2915C8.83317 33.5432 9.80317 33.8415 11.5915 33.9232C13.5248 34.0115 14.1032 34.0298 18.9998 34.0298C23.8965 34.0298 24.4748 34.0115 26.4082 33.9232C28.1965 33.8415 29.1665 33.5432 29.8132 33.2915C30.6682 32.9582 31.2798 32.5632 31.9215 31.9215C32.5298 31.3298 32.9982 30.6082 33.2915 29.8132C33.5432 29.1665 33.8415 28.1965 33.9232 26.4082C34.0115 24.4748 34.0298 23.8948 34.0298 18.9998C34.0298 14.1048 34.0115 13.5248 33.9232 11.5915C33.8415 9.80317 33.5432 8.83317 33.2915 8.1865C32.9582 7.3315 32.5632 6.71984 31.9215 6.07817C31.3297 5.46996 30.6093 5.00185 29.8132 4.70817C29.1665 4.4565 28.1965 4.15817 26.4082 4.0765V4.0765ZM16.6582 24.6515C17.9659 25.1959 19.4221 25.2694 20.7781 24.8594C22.134 24.4494 23.3055 23.5814 24.0925 22.4036C24.8795 21.2258 25.2333 19.8113 25.0932 18.4017C24.9532 16.9921 24.3282 15.6748 23.3248 14.6748C22.6852 14.0356 21.9119 13.5462 21.0604 13.2417C20.2089 12.9373 19.3006 12.8254 18.4007 12.9142C17.5008 13.003 16.6318 13.2901 15.8562 13.7551C15.0806 14.22 14.4177 14.8511 13.9153 15.6029C13.4129 16.3548 13.0835 17.2087 12.9507 18.1031C12.8179 18.9976 12.8851 19.9103 13.1474 20.7757C13.4097 21.6411 13.8606 22.4375 14.4677 23.1077C15.0748 23.7779 15.8229 24.3051 16.6582 24.6515ZM12.3365 12.3365C13.2115 11.4615 14.2504 10.7673 15.3937 10.2938C16.537 9.8202 17.7623 9.57646 18.9998 9.57646C20.2373 9.57646 21.4627 9.8202 22.606 10.2938C23.7493 10.7673 24.7881 11.4615 25.6632 12.3365C26.5382 13.2115 27.2323 14.2504 27.7059 15.3937C28.1795 16.537 28.4232 17.7623 28.4232 18.9998C28.4232 20.2373 28.1795 21.4627 27.7059 22.606C27.2323 23.7493 26.5382 24.7881 25.6632 25.6632C23.8959 27.4304 21.4991 28.4232 18.9998 28.4232C16.5006 28.4232 14.1037 27.4304 12.3365 25.6632C10.5693 23.8959 9.57646 21.4991 9.57646 18.9998C9.57646 16.5006 10.5693 14.1037 12.3365 12.3365V12.3365ZM30.5132 10.9798C30.73 10.7753 30.9036 10.5293 31.0237 10.2565C31.1437 9.98361 31.2079 9.68945 31.2122 9.39139C31.2165 9.09332 31.161 8.79742 31.049 8.52119C30.9369 8.24496 30.7706 7.99402 30.5598 7.78324C30.349 7.57245 30.098 7.4061 29.8218 7.29403C29.5456 7.18197 29.2497 7.12646 28.9516 7.13081C28.6536 7.13515 28.3594 7.19926 28.0865 7.31933C27.8137 7.4394 27.5677 7.613 27.3632 7.82984C26.9654 8.25155 26.7476 8.81171 26.756 9.39139C26.7645 9.97107 26.9985 10.5246 27.4084 10.9346C27.8184 11.3445 28.3719 11.5786 28.9516 11.587C29.5313 11.5955 30.0915 11.3777 30.5132 10.9798V10.9798Z" fill="white"/>
</svg>
