<svg width="258" height="295" viewBox="0 0 258 295" fill="none" xmlns="http://www.w3.org/2000/svg">
<g filter="url(#filter0_d_403:70)">
<path d="M172.641 185.884L249.483 141.095L249.117 52.1539L171.908 8L95.0659 52.7888L172.275 96.9409L172.641 185.884Z" fill="url(#paint0_radial_403:70)" shape-rendering="crispEdges"/>
<path d="M173.275 96.9368L173.273 96.3594L172.772 96.0728L97.0659 52.7805L171.913 9.15469L248.119 52.7354L248.48 140.522L173.634 184.147L173.275 96.9368Z" stroke="url(#paint1_radial_403:70)" stroke-width="2" shape-rendering="crispEdges"/>
</g>
<g filter="url(#filter1_d_403:70)">
<path d="M249.486 153.204H249.483L172.641 197.991L95.4336 153.839L95.799 242.779L173.01 286.932L249.852 242.144L249.486 153.204Z" fill="url(#paint2_radial_403:70)" shape-rendering="crispEdges"/>
<path d="M172.145 198.86L172.646 199.146L173.145 198.855L248.493 154.938L248.85 241.57L173.006 285.778L96.7966 242.198L96.4407 155.567L172.145 198.86Z" stroke="url(#paint3_radial_403:70)" stroke-width="2" shape-rendering="crispEdges"/>
</g>
<g filter="url(#filter2_d_403:70)">
<path d="M162.051 103.927L84.842 59.7739L8 104.563L8.36758 193.504L85.5768 237.657L85.2094 148.717L162.051 103.927Z" fill="url(#paint4_radial_403:70)" shape-rendering="crispEdges"/>
<path d="M84.7058 147.853L84.207 148.143L84.2094 148.721L84.5696 235.929L9.36518 192.922L9.00238 105.136L84.8467 60.9286L160.051 103.935L84.7058 147.853Z" stroke="url(#paint5_radial_403:70)" stroke-width="2" shape-rendering="crispEdges"/>
</g>
<g filter="url(#filter3_i_403:70)">
<path d="M250.196 132.995H8.00684V172.51H250.196V132.995Z" fill="white"/>
</g>
<g filter="url(#filter4_d_403:70)">
<path d="M36.3768 142.475H32.0968C31.3668 142.475 31.1468 142.535 30.5168 143.235L23.9568 150.465V143.395C23.9568 142.665 23.6068 142.475 23.0668 142.475H19.9268C19.3268 142.475 19.0068 142.665 19.0068 143.395V162.415C19.0068 163.145 19.3268 163.335 19.9268 163.335H23.0668C23.6068 163.335 23.9568 163.145 23.9568 162.415V156.775L25.9168 154.715C27.6268 157.565 30.4568 162.315 30.4568 162.315C30.8668 162.985 31.2768 163.335 32.0368 163.335H35.9068C36.5068 163.335 36.6368 162.735 36.3768 162.315L29.5668 151.095L36.6968 143.365C36.9868 143.075 36.9868 142.475 36.3768 142.475Z" fill="#1D1D1F"/>
<path d="M40.597 157.215C40.497 158.455 40.307 159.335 38.817 159.335C38.247 159.335 38.127 159.655 38.127 160.195V162.575C38.127 163.265 38.247 163.465 39.077 163.465C44.017 163.555 45.127 162.385 45.477 157.245L46.1769 146.915H51.247V162.415C51.247 163.145 51.597 163.335 52.167 163.335H55.307C55.877 163.335 56.227 163.145 56.227 162.415V143.395C56.227 142.665 55.877 142.475 55.307 142.475H42.657C42.087 142.475 41.737 142.665 41.737 143.395L40.597 157.215Z" fill="#1D1D1F"/>
<path d="M61.8668 142.475C61.2968 142.475 60.9468 142.665 60.9468 143.395V162.415C60.9468 162.985 61.1368 163.335 61.8668 163.335H64.7468C65.5468 163.335 65.7668 162.885 66.1768 162.255L72.8968 151.385V162.415C72.8968 163.145 73.2468 163.335 73.8168 163.335H76.9568C77.5268 163.335 77.8768 163.145 77.8768 162.415V143.395C77.8768 142.825 77.6868 142.475 76.9568 142.475H73.9768C73.1868 142.475 72.9668 142.915 72.5468 143.555L65.8268 154.395V143.395C65.8268 142.665 65.4768 142.475 64.9068 142.475H61.8668Z" fill="#1D1D1F"/>
<path d="M101.237 142.445H98.1969C97.1469 142.445 96.9869 143.145 96.7669 143.525L92.3969 151.315L88.0469 143.525C87.7969 143.145 87.6669 142.445 86.5969 142.445H83.4569C82.7269 142.445 82.5369 142.795 82.5369 143.365V162.415C82.5369 163.145 82.8869 163.335 83.4569 163.335H86.5969C87.1669 163.335 87.5169 163.145 87.5169 162.415V151.665L90.7169 157.215C90.8769 157.465 91.1269 157.885 91.5969 157.885H93.1869C93.6669 157.885 93.9469 157.465 94.1069 157.215L97.2769 151.665V162.415C97.2769 163.145 97.6269 163.335 98.1969 163.335H101.237C101.807 163.335 102.157 163.145 102.157 162.415V143.365C102.157 142.795 101.967 142.445 101.237 142.445Z" fill="#1D1D1F"/>
<path d="M124.787 162.445L117.787 143.455C117.497 142.795 117.187 142.475 116.487 142.475H113.447C112.747 142.475 112.397 142.795 112.147 143.455L105.107 162.445C104.947 162.825 104.947 163.335 105.647 163.335H108.977C109.667 163.335 109.927 163.145 110.177 162.385L111.067 159.875H118.837L119.717 162.385C119.977 163.145 120.227 163.335 120.927 163.335H124.257C124.947 163.335 124.947 162.825 124.787 162.445ZM112.587 155.435L114.967 148.435L117.347 155.435H112.587Z" fill="#1D1D1F"/>
<path d="M140.067 142.475H125.367C124.637 142.475 124.447 142.825 124.447 143.395V146.025C124.447 146.595 124.637 146.945 125.367 146.945H130.247V162.415C130.247 163.145 130.597 163.335 131.167 163.335H134.297C134.877 163.335 135.217 163.145 135.217 162.415V146.945H140.067C140.797 146.945 140.987 146.595 140.987 146.025V143.395C140.987 142.825 140.797 142.475 140.067 142.475Z" fill="#1D1D1F"/>
<path d="M153.607 157.215C153.507 158.455 153.317 159.335 151.827 159.335C151.257 159.335 151.137 159.655 151.137 160.195V162.575C151.137 163.265 151.257 163.465 152.087 163.465C157.027 163.555 158.137 162.385 158.487 157.245L159.187 146.915H164.257V162.415C164.257 163.145 164.607 163.335 165.177 163.335H168.317C168.887 163.335 169.237 163.145 169.237 162.415V143.395C169.237 142.665 168.887 142.475 168.317 142.475H155.667C155.097 142.475 154.747 142.665 154.747 143.395L153.607 157.215Z" fill="#1D1D1F"/>
<path d="M199.567 149.165C199.567 144.155 194.947 141.995 191.167 141.995C187.397 141.995 182.837 144.155 182.837 149.165V150.715H178.907V143.395C178.907 142.665 178.587 142.475 177.987 142.475H174.847C174.277 142.475 173.927 142.665 173.927 143.395V162.415C173.927 163.145 174.277 163.335 174.847 163.335H177.987C178.587 163.335 178.907 163.145 178.907 162.415V155.125H182.837V156.645C182.837 161.655 187.397 163.805 191.167 163.805C194.947 163.805 199.567 161.655 199.567 156.645V149.165ZM194.597 156.205C194.597 158.225 193.267 159.405 191.167 159.405C189.107 159.405 187.777 158.225 187.777 156.205V149.605C187.777 147.575 189.107 146.405 191.167 146.405C193.267 146.405 194.597 147.575 194.597 149.605V156.205Z" fill="#1D1D1F"/>
<path d="M221.127 142.475H216.847C216.117 142.475 215.897 142.535 215.267 143.235L208.697 150.465V143.395C208.697 142.665 208.357 142.475 207.817 142.475H204.677C204.077 142.475 203.757 142.665 203.757 143.395V162.415C203.757 163.145 204.077 163.335 204.677 163.335H207.817C208.357 163.335 208.697 163.145 208.697 162.415V156.775L210.667 154.715C212.377 157.565 215.197 162.315 215.197 162.315C215.617 162.985 216.027 163.335 216.787 163.335H220.657C221.257 163.335 221.377 162.735 221.127 162.315L214.317 151.095L221.447 143.365C221.727 143.075 221.727 142.475 221.127 142.475Z" fill="#1D1D1F"/>
<path d="M239.897 157.155C239.897 156.395 239.637 156.075 238.947 156.075H235.837C235.137 156.075 235.077 156.585 234.977 157.215C234.727 158.735 233.367 159.375 231.657 159.375C229.557 159.375 228.137 158.225 228.137 156.205V149.605C228.137 147.615 229.557 146.435 231.657 146.435C233.367 146.435 234.247 146.915 234.917 147.955C235.167 148.335 235.207 148.945 235.867 148.945H238.907C239.637 148.945 239.897 148.785 239.897 148.025C239.487 143.995 235.587 141.995 231.657 141.995C227.877 141.995 223.157 144.185 223.157 149.165V156.645C223.157 161.625 227.877 163.805 231.657 163.805C235.587 163.805 239.897 161.245 239.897 157.155Z" fill="#1D1D1F"/>
</g>
<defs>
<filter id="filter0_d_403:70" x="95.0659" y="0" width="162.417" height="185.884" filterUnits="userSpaceOnUse" color-interpolation-filters="sRGB">
<feFlood flood-opacity="0" result="BackgroundImageFix"/>
<feColorMatrix in="SourceAlpha" type="matrix" values="0 0 0 0 0 0 0 0 0 0 0 0 0 0 0 0 0 0 127 0" result="hardAlpha"/>
<feOffset dx="4" dy="-4"/>
<feGaussianBlur stdDeviation="2"/>
<feComposite in2="hardAlpha" operator="out"/>
<feColorMatrix type="matrix" values="0 0 0 0 0 0 0 0 0 0 0 0 0 0 0 0 0 0 0.25 0"/>
<feBlend mode="normal" in2="BackgroundImageFix" result="effect1_dropShadow_403:70"/>
<feBlend mode="normal" in="SourceGraphic" in2="effect1_dropShadow_403:70" result="shape"/>
</filter>
<filter id="filter1_d_403:70" x="95.4336" y="153.204" width="162.418" height="141.729" filterUnits="userSpaceOnUse" color-interpolation-filters="sRGB">
<feFlood flood-opacity="0" result="BackgroundImageFix"/>
<feColorMatrix in="SourceAlpha" type="matrix" values="0 0 0 0 0 0 0 0 0 0 0 0 0 0 0 0 0 0 127 0" result="hardAlpha"/>
<feOffset dx="4" dy="4"/>
<feGaussianBlur stdDeviation="2"/>
<feComposite in2="hardAlpha" operator="out"/>
<feColorMatrix type="matrix" values="0 0 0 0 0 0 0 0 0 0 0 0 0 0 0 0 0 0 0.25 0"/>
<feBlend mode="normal" in2="BackgroundImageFix" result="effect1_dropShadow_403:70"/>
<feBlend mode="normal" in="SourceGraphic" in2="effect1_dropShadow_403:70" result="shape"/>
</filter>
<filter id="filter2_d_403:70" x="0" y="59.7739" width="162.051" height="185.883" filterUnits="userSpaceOnUse" color-interpolation-filters="sRGB">
<feFlood flood-opacity="0" result="BackgroundImageFix"/>
<feColorMatrix in="SourceAlpha" type="matrix" values="0 0 0 0 0 0 0 0 0 0 0 0 0 0 0 0 0 0 127 0" result="hardAlpha"/>
<feOffset dx="-4" dy="4"/>
<feGaussianBlur stdDeviation="2"/>
<feComposite in2="hardAlpha" operator="out"/>
<feColorMatrix type="matrix" values="0 0 0 0 0 0 0 0 0 0 0 0 0 0 0 0 0 0 0.25 0"/>
<feBlend mode="normal" in2="BackgroundImageFix" result="effect1_dropShadow_403:70"/>
<feBlend mode="normal" in="SourceGraphic" in2="effect1_dropShadow_403:70" result="shape"/>
</filter>
<filter id="filter3_i_403:70" x="8.00684" y="132.995" width="244.189" height="41.5151" filterUnits="userSpaceOnUse" color-interpolation-filters="sRGB">
<feFlood flood-opacity="0" result="BackgroundImageFix"/>
<feBlend mode="normal" in="SourceGraphic" in2="BackgroundImageFix" result="shape"/>
<feColorMatrix in="SourceAlpha" type="matrix" values="0 0 0 0 0 0 0 0 0 0 0 0 0 0 0 0 0 0 127 0" result="hardAlpha"/>
<feOffset dx="2" dy="2"/>
<feGaussianBlur stdDeviation="1"/>
<feComposite in2="hardAlpha" operator="arithmetic" k2="-1" k3="1"/>
<feColorMatrix type="matrix" values="0 0 0 0 0 0 0 0 0 0 0 0 0 0 0 0 0 0 0.25 0"/>
<feBlend mode="normal" in2="shape" result="effect1_innerShadow_403:70"/>
</filter>
<filter id="filter4_d_403:70" x="17.0068" y="139.995" width="228.89" height="29.8101" filterUnits="userSpaceOnUse" color-interpolation-filters="sRGB">
<feFlood flood-opacity="0" result="BackgroundImageFix"/>
<feColorMatrix in="SourceAlpha" type="matrix" values="0 0 0 0 0 0 0 0 0 0 0 0 0 0 0 0 0 0 127 0" result="hardAlpha"/>
<feOffset dx="2" dy="2"/>
<feGaussianBlur stdDeviation="2"/>
<feComposite in2="hardAlpha" operator="out"/>
<feColorMatrix type="matrix" values="0 0 0 0 0 0 0 0 0 0 0 0 0 0 0 0 0 0 0.5 0"/>
<feBlend mode="normal" in2="BackgroundImageFix" result="effect1_dropShadow_403:70"/>
<feBlend mode="normal" in="SourceGraphic" in2="effect1_dropShadow_403:70" result="shape"/>
</filter>
<radialGradient id="paint0_radial_403:70" cx="0" cy="0" r="1" gradientUnits="userSpaceOnUse" gradientTransform="translate(172.766 5.4663) rotate(74.3022) scale(158.928)">
<stop stop-color="#115AE8"/>
<stop offset="1" stop-color="#158CCF" stop-opacity="0.68"/>
</radialGradient>
<radialGradient id="paint1_radial_403:70" cx="0" cy="0" r="1" gradientUnits="userSpaceOnUse" gradientTransform="translate(172.274 96.9418) rotate(90) scale(88.9418 77.2084)">
<stop stop-color="#0555F1" stop-opacity="0.91"/>
<stop offset="1" stop-color="#188DE2" stop-opacity="0"/>
</radialGradient>
<radialGradient id="paint2_radial_403:70" cx="0" cy="0" r="1" gradientUnits="userSpaceOnUse" gradientTransform="translate(95.0068 243.495) rotate(-14.9889) scale(160.46)">
<stop stop-color="#115AE8"/>
<stop offset="1" stop-color="#158CCF" stop-opacity="0.68"/>
</radialGradient>
<radialGradient id="paint3_radial_403:70" cx="0" cy="0" r="1" gradientUnits="userSpaceOnUse" gradientTransform="translate(172.643 220.068) rotate(90) scale(66.8644 77.2092)">
<stop stop-color="#0555F1"/>
<stop offset="1" stop-color="#188DE2" stop-opacity="0"/>
</radialGradient>
<radialGradient id="paint4_radial_403:70" cx="0" cy="0" r="1" gradientUnits="userSpaceOnUse" gradientTransform="translate(85.0068 59.9949) rotate(105.319) scale(157.081)">
<stop stop-color="#115AE8"/>
<stop offset="1" stop-color="#158CCF" stop-opacity="0.68"/>
</radialGradient>
<radialGradient id="paint5_radial_403:70" cx="0" cy="0" r="1" gradientUnits="userSpaceOnUse" gradientTransform="translate(85.0256 148.715) rotate(90) scale(88.9413 77.0256)">
<stop stop-color="#0555F1"/>
<stop offset="1" stop-color="#188DE2" stop-opacity="0"/>
</radialGradient>
</defs>
</svg>
