<?xml version="1.0" encoding="UTF-8" standalone="no" ?>
<!DOCTYPE svg PUBLIC "-//W3C//DTD SVG 1.1//EN" "http://www.w3.org/Graphics/SVG/1.1/DTD/svg11.dtd">
<svg xmlns="http://www.w3.org/2000/svg" xmlns:xlink="http://www.w3.org/1999/xlink" version="1.1" width="500" height="500" viewBox="0 0 500 500" xml:space="preserve">
<desc>Created with Fabric.js 3.6.3</desc>
<defs>
</defs>
<g transform="matrix(3.07 0 0 3.07 277.2438688702948 270)"  >
<g style=""   >
		<g transform="matrix(1 0 0 1 10.183752050000002 -16.457491400000006)"  >
<linearGradient id="SVGID_6138" gradientUnits="userSpaceOnUse" gradientTransform="matrix(1 0 0 1 -25.149316750000004 -28.9712663)"  x1="0" y1="0" x2="100" y2="100">
<stop offset="0%" style="stop-color:rgb(0,221,255);stop-opacity: 1"/>
<stop offset="100%" style="stop-color:rgb(255,0,212);stop-opacity: 1"/>
</linearGradient>
<polygon style="stroke: none; stroke-width: 1; stroke-dasharray: none; stroke-linecap: butt; stroke-dashoffset: 0; stroke-linejoin: miter; stroke-miterlimit: 4; fill: url(#SVGID_6138); fill-rule: nonzero; opacity: 1;"  points="0.11939814999999498,28.971266300000003 25.149316750000004,14.382082500000003 25.03021435,-14.588885799999996 -0.1193637500000051,-28.971266299999996 -25.149316750000004,-14.382085299999996 0.0002956499999982043,-0.00029519999999649826 " />
</g>
		<g transform="matrix(1 0 0 1 10.303741450000004 23.64883039999999)"  >
<linearGradient id="SVGID_6139" gradientUnits="userSpaceOnUse" gradientTransform="matrix(1 0 0 1 -25.14957425 -21.779926299999996)"  x1="0" y1="0" x2="100" y2="100">
<stop offset="0%" style="stop-color:rgb(0,221,255);stop-opacity: 1"/>
<stop offset="100%" style="stop-color:rgb(255,0,212);stop-opacity: 1"/>
</linearGradient>
<polygon style="stroke: none; stroke-width: 1; stroke-dasharray: none; stroke-linecap: butt; stroke-dashoffset: 0; stroke-linejoin: miter; stroke-miterlimit: 4; fill: url(#SVGID_6139); fill-rule: nonzero; opacity: 1;"  points="25.030471849999998,-21.779926299999993 25.029327350000003,-21.779926299999993 -0.0005912500000064824,-7.1910437999999886 -25.14957425,-21.57283019999999 -25.030544250000005,7.397846200000004 0.1197357499999967,21.7799263 25.14957425,7.190746300000001 " />
</g>
		<g transform="matrix(1 0 0 1 -18.236035150000003 0.40693379999999735)"  >
<linearGradient id="SVGID_6140" gradientUnits="userSpaceOnUse" gradientTransform="matrix(1 0 0 1 -25.08976435 -28.971117999999997)"  x1="0" y1="0" x2="100" y2="100">
<stop offset="0%" style="stop-color:rgb(0,221,255);stop-opacity: 1"/>
<stop offset="100%" style="stop-color:rgb(255,0,212);stop-opacity: 1"/>
</linearGradient>
<polygon style="stroke: none; stroke-width: 1; stroke-dasharray: none; stroke-linecap: butt; stroke-dashoffset: 0; stroke-linejoin: miter; stroke-miterlimit: 4; fill: url(#SVGID_6140); fill-rule: nonzero; opacity: 1;"  points="25.089764349999996,-14.589032199999998 -0.05980985000000061,-28.971117999999997 -25.08976435,-14.381936099999997 -24.97003195,14.589030299999997 0.17954324999999827,28.971117999999997 0.059885749999999405,0.00044540000000381497 " />
</g>
</g>
</g>
<g transform="matrix(0.3077369383851527 0 0 0.05020971099968281 264.93116685817483 287.70000000000005)"  >
<rect style="stroke: none; stroke-width: 1; stroke-dasharray: none; stroke-linecap: butt; stroke-dashoffset: 0; stroke-linejoin: miter; stroke-miterlimit: 4; fill: rgb(255,255,255); fill-rule: evenodd; opacity: 1;"  x="-393.5" y="-393.5" rx="0" ry="0" width="787" height="787" />
</g>
<g transform="matrix(1,0,0,1,264.93116685817483,289.0721261338751)" style=""  ><path fill="#1D1D1F" opacity="1" d="M-92.71-10.90L-96.99-10.90C-97.72-10.90-97.94-10.84-98.57-10.14L-105.13-2.91L-105.13-9.98C-105.13-10.71-105.48-10.90-106.02-10.90L-109.16-10.90C-109.76-10.90-110.08-10.71-110.08-9.98L-110.08 9.04C-110.08 9.77-109.76 9.96-109.16 9.96L-106.02 9.96C-105.48 9.96-105.13 9.77-105.13 9.04L-105.13 3.40L-103.17 1.34C-101.46 4.19-98.63 8.94-98.63 8.94C-98.22 9.61-97.81 9.96-97.05 9.96L-93.18 9.96C-92.58 9.96-92.45 9.36-92.71 8.94L-99.52-2.28L-92.39-10.01C-92.10-10.30-92.10-10.90-92.71-10.90Z"/><path fill="#1D1D1F" opacity="1" d="M-88.49 3.84C-88.59 5.08-88.78 5.96-90.27 5.96C-90.84 5.96-90.96 6.28-90.96 6.82L-90.96 9.20C-90.96 9.89-90.84 10.09-90.01 10.09C-85.07 10.18-83.96 9.01-83.61 3.87L-82.91-6.46L-77.84-6.46L-77.84 9.04C-77.84 9.77-77.49 9.96-76.92 9.96L-73.78 9.96C-73.21 9.96-72.86 9.77-72.86 9.04L-72.86-9.98C-72.86-10.71-73.21-10.90-73.78-10.90L-86.43-10.90C-87.00-10.90-87.35-10.71-87.35-9.98Z"/><path fill="#1D1D1F" opacity="1" d="M-67.22-10.90C-67.79-10.90-68.14-10.71-68.14-9.98L-68.14 9.04C-68.14 9.61-67.95 9.96-67.22 9.96L-64.34 9.96C-63.54 9.96-63.32 9.51-62.91 8.88L-56.19-1.99L-56.19 9.04C-56.19 9.77-55.84 9.96-55.27 9.96L-52.13 9.96C-51.56 9.96-51.21 9.77-51.21 9.04L-51.21-9.98C-51.21-10.55-51.40-10.90-52.13-10.90L-55.11-10.90C-55.90-10.90-56.12-10.46-56.54-9.82L-63.26 1.02L-63.26-9.98C-63.26-10.71-63.61-10.90-64.18-10.90L-67.22-10.90Z"/><path fill="#1D1D1F" opacity="1" d="M-27.85-10.93L-30.89-10.93C-31.94-10.93-32.10-10.23-32.32-9.85L-36.69-2.06L-41.04-9.85C-41.29-10.23-41.42-10.93-42.49-10.93L-45.63-10.93C-46.36-10.93-46.55-10.58-46.55-10.01L-46.55 9.04C-46.55 9.77-46.20 9.96-45.63 9.96L-42.49 9.96C-41.92 9.96-41.57 9.77-41.57 9.04L-41.57-1.71L-38.37 3.84C-38.21 4.09-37.96 4.51-37.49 4.51L-35.90 4.51C-35.42 4.51-35.14 4.09-34.98 3.84L-31.81-1.71L-31.81 9.04C-31.81 9.77-31.46 9.96-30.89 9.96L-27.85 9.96C-27.28 9.96-26.93 9.77-26.93 9.04L-26.93-10.01C-26.93-10.58-27.12-10.93-27.85-10.93Z"/><path fill="#1D1D1F" opacity="1" d="M-4.30 9.07L-11.30-9.92C-11.59-10.58-11.90-10.90-12.60-10.90L-15.64-10.90C-16.34-10.90-16.69-10.58-16.94-9.92L-23.98 9.07C-24.14 9.45-24.14 9.96-23.44 9.96L-20.11 9.96C-19.42 9.96-19.16 9.77-18.91 9.01L-18.02 6.50L-10.25 6.50L-9.37 9.01C-9.11 9.77-8.86 9.96-8.16 9.96L-4.83 9.96C-4.14 9.96-4.14 9.45-4.30 9.07ZM-16.50 2.06L-14.12-4.94L-11.74 2.06Z"/><path fill="#1D1D1F" opacity="1" d="M10.98-10.90L-3.72-10.90C-4.45-10.90-4.64-10.55-4.64-9.98L-4.64-7.35C-4.64-6.78-4.45-6.43-3.72-6.43L1.16-6.43L1.16 9.04C1.16 9.77 1.51 9.96 2.08 9.96L5.21 9.96C5.79 9.96 6.13 9.77 6.13 9.04L6.13-6.43L10.98-6.43C11.71-6.43 11.90-6.78 11.90-7.35L11.90-9.98C11.90-10.55 11.71-10.90 10.98-10.90Z"/><path fill="#1D1D1F" opacity="1" d=""/><path fill="#1D1D1F" opacity="1" d="M24.52 3.84C24.42 5.08 24.23 5.96 22.74 5.96C22.17 5.96 22.05 6.28 22.05 6.82L22.05 9.20C22.05 9.89 22.17 10.09 23.00 10.09C27.94 10.18 29.05 9.01 29.40 3.87L30.10-6.46L35.17-6.46L35.17 9.04C35.17 9.77 35.52 9.96 36.09 9.96L39.23 9.96C39.80 9.96 40.15 9.77 40.15 9.04L40.15-9.98C40.15-10.71 39.80-10.90 39.23-10.90L26.58-10.90C26.01-10.90 25.66-10.71 25.66-9.98Z"/><path fill="#1D1D1F" opacity="1" d="M70.48-4.21C70.48-9.22 65.86-11.38 62.08-11.38C58.31-11.38 53.75-9.22 53.75-4.21L53.75-2.66L49.82-2.66L49.82-9.98C49.82-10.71 49.50-10.90 48.90-10.90L45.76-10.90C45.19-10.90 44.84-10.71 44.84-9.98L44.84 9.04C44.84 9.77 45.19 9.96 45.76 9.96L48.90 9.96C49.50 9.96 49.82 9.77 49.82 9.04L49.82 1.75L53.75 1.75L53.75 3.27C53.75 8.28 58.31 10.43 62.08 10.43C65.86 10.43 70.48 8.28 70.48 3.27ZM65.51 2.83C65.51 4.85 64.18 6.03 62.08 6.03C60.02 6.03 58.69 4.85 58.69 2.83L58.69-3.77C58.69-5.80 60.02-6.97 62.08-6.97C64.18-6.97 65.51-5.80 65.51-3.77Z"/><path fill="#1D1D1F" opacity="1" d="M92.04-10.90L87.76-10.90C87.03-10.90 86.81-10.84 86.18-10.14L79.61-2.91L79.61-9.98C79.61-10.71 79.27-10.90 78.73-10.90L75.59-10.90C74.99-10.90 74.67-10.71 74.67-9.98L74.67 9.04C74.67 9.77 74.99 9.96 75.59 9.96L78.73 9.96C79.27 9.96 79.61 9.77 79.61 9.04L79.61 3.40L81.58 1.34C83.29 4.19 86.11 8.94 86.11 8.94C86.53 9.61 86.94 9.96 87.70 9.96L91.57 9.96C92.17 9.96 92.29 9.36 92.04 8.94L85.23-2.28L92.36-10.01C92.64-10.30 92.64-10.90 92.04-10.90Z"/><path fill="#1D1D1F" opacity="1" d="M110.81 3.78C110.81 3.02 110.55 2.70 109.86 2.70L106.75 2.70C106.05 2.70 105.99 3.21 105.89 3.84C105.64 5.36 104.28 6.00 102.57 6.00C100.47 6.00 99.05 4.85 99.05 2.83L99.05-3.77C99.05-5.76 100.47-6.94 102.57-6.94C104.28-6.94 105.16-6.46 105.83-5.42C106.08-5.04 106.12-4.43 106.78-4.43L109.82-4.43C110.55-4.43 110.81-4.59 110.81-5.35C110.40-9.38 106.50-11.38 102.57-11.38C98.79-11.38 94.07-9.19 94.07-4.21L94.07 3.27C94.07 8.25 98.79 10.43 102.57 10.43C106.50 10.43 110.81 7.87 110.81 3.78Z"/></g>
</svg>