<svg width="51" height="50" viewBox="0 0 51 50" fill="none" xmlns="http://www.w3.org/2000/svg">
<g clip-path="url(#clip0_503:7)">
<path d="M40.6265 50C38.0223 50 35.8088 49.0804 33.9858 47.2412C32.1629 45.402 31.2515 43.1885 31.2515 40.6006C31.2515 38.0127 32.1629 35.8073 33.9858 33.9844C35.8088 32.1615 38.0223 31.25 40.6265 31.25C43.2306 31.25 45.4442 32.1615 47.2671 33.9844C49.09 35.8073 50.0015 38.0127 50.0015 40.6006C50.0015 43.1885 49.09 45.402 47.2671 47.2412C45.4442 49.0804 43.2306 50 40.6265 50ZM40.6509 37.5C39.7882 37.5 39.0477 37.8011 38.4292 38.4033C37.8107 39.0055 37.5015 39.738 37.5015 40.6006C37.5015 41.4632 37.8107 42.2038 38.4292 42.8223C39.0477 43.4408 39.7882 43.75 40.6509 43.75C41.5135 43.75 42.2459 43.4408 42.8481 42.8223C43.4504 42.2038 43.7515 41.4632 43.7515 40.6006C43.7515 39.738 43.4504 39.0055 42.8481 38.4033C42.2459 37.8011 41.5135 37.5 40.6509 37.5ZM19.3374 46.875C18.8817 47.7539 18.1737 48.4945 17.2134 49.0967C16.2531 49.6989 15.3335 50 14.4546 50H8.15576C7.27686 50 6.69906 49.6908 6.42236 49.0723C6.14567 48.4538 6.23519 47.7214 6.69092 46.875L30.6655 3.125C31.1213 2.24609 31.8293 1.50553 32.7896 0.90332C33.7498 0.301107 34.6694 0 35.5483 0H41.8472C42.7261 0 43.3039 0.301107 43.5806 0.90332C43.8573 1.50553 43.7677 2.24609 43.312 3.125L19.3374 46.875ZM9.37646 18.75C6.7723 18.75 4.55876 17.8304 2.73584 15.9912C0.912923 14.152 0.00146484 11.9385 0.00146484 9.35059C0.00146484 6.7627 0.912923 4.55729 2.73584 2.73438C4.55876 0.911458 6.7723 0 9.37646 0C11.9806 0 14.1942 0.911458 16.0171 2.73438C17.84 4.55729 18.7515 6.7627 18.7515 9.35059C18.7515 11.9385 17.84 14.152 16.0171 15.9912C14.1942 17.8304 11.9806 18.75 9.37646 18.75ZM9.35205 6.25C8.48942 6.25 7.757 6.55111 7.15479 7.15332C6.55257 7.75553 6.25146 8.48796 6.25146 9.35059C6.25146 10.2132 6.55257 10.9538 7.15479 11.5723C7.757 12.1908 8.49756 12.5 9.37646 12.5C10.2554 12.5 10.9959 12.1908 11.5981 11.5723C12.2004 10.9538 12.5015 10.2132 12.5015 9.35059C12.5015 8.48796 12.1922 7.75553 11.5737 7.15332C10.9552 6.55111 10.2147 6.25 9.35205 6.25Z" fill="#F8F8F8"/>
</g>
<defs>
<clipPath id="clip0_503:7">
<rect width="50.05" height="50" fill="white"/>
</clipPath>
</defs>
</svg>
