<svg width="42" height="44" viewBox="0 0 42 44" fill="none" xmlns="http://www.w3.org/2000/svg">
<path d="M41.1563 27.5518L37.958 24.8174C38.1094 23.8896 38.1875 22.9424 38.1875 21.9951C38.1875 21.0479 38.1094 20.1006 37.958 19.1729L41.1563 16.4385C41.3975 16.232 41.5701 15.9569 41.6513 15.6499C41.7324 15.3429 41.7181 15.0184 41.6104 14.7197L41.5664 14.5928C40.6859 12.132 39.3675 9.85076 37.6748 7.85937L37.5869 7.75684C37.3816 7.51539 37.1079 7.34183 36.802 7.25902C36.496 7.17621 36.1721 7.18805 35.8731 7.29297L31.9033 8.7041C30.4385 7.50293 28.8027 6.55566 27.0352 5.8916L26.2686 1.74121C26.2107 1.42892 26.0592 1.14161 25.8342 0.91747C25.6092 0.693326 25.3213 0.542953 25.0088 0.486328L24.877 0.461914C22.333 0.00292969 19.6572 0.00292969 17.1133 0.461914L16.9815 0.486328C16.6689 0.542953 16.381 0.693326 16.156 0.91747C15.931 1.14161 15.7795 1.42892 15.7217 1.74121L14.9502 5.91113C13.1967 6.57533 11.5638 7.5221 10.1162 8.71387L6.1172 7.29297C5.8182 7.18722 5.49411 7.17495 5.18797 7.25781C4.88184 7.34067 4.60817 7.51472 4.40333 7.75684L4.31544 7.85937C2.62475 9.85217 1.30653 12.133 0.423838 14.5928L0.379893 14.7197C0.160166 15.3301 0.34083 16.0137 0.833994 16.4385L4.0713 19.2021C3.91993 20.1201 3.84669 21.0576 3.84669 21.9902C3.84669 22.9277 3.91993 23.8652 4.0713 24.7783L0.833994 27.542C0.592762 27.7485 0.42011 28.0236 0.338994 28.3306C0.257879 28.6376 0.272144 28.962 0.379893 29.2607L0.423838 29.3877C1.30763 31.8486 2.61622 34.1191 4.31544 36.1211L4.40333 36.2236C4.60867 36.4651 4.88235 36.6386 5.1883 36.7214C5.49425 36.8043 5.81811 36.7924 6.1172 36.6875L10.1162 35.2666C11.5713 36.4629 13.1973 37.4102 14.9502 38.0693L15.7217 42.2393C15.7795 42.5516 15.931 42.8389 16.156 43.063C16.381 43.2871 16.6689 43.4375 16.9815 43.4941L17.1133 43.5186C19.6806 43.98 22.3096 43.98 24.877 43.5186L25.0088 43.4941C25.3213 43.4375 25.6092 43.2871 25.8342 43.063C26.0592 42.8389 26.2107 42.5516 26.2686 42.2393L27.0352 38.0889C28.802 37.4265 30.447 36.4762 31.9033 35.2764L35.8731 36.6875C36.1721 36.7933 36.4961 36.8055 36.8023 36.7227C37.1084 36.6398 37.3821 36.4658 37.5869 36.2236L37.6748 36.1211C39.374 34.1143 40.6826 31.8486 41.5664 29.3877L41.6104 29.2607C41.8301 28.6602 41.6494 27.9766 41.1563 27.5518V27.5518ZM34.4912 19.749C34.6133 20.4863 34.6768 21.2432 34.6768 22C34.6768 22.7568 34.6133 23.5137 34.4912 24.251L34.169 26.209L37.8164 29.3291C37.2635 30.603 36.5655 31.8089 35.7363 32.9229L31.2051 31.3164L29.6719 32.5762C28.5049 33.5332 27.2061 34.2852 25.7998 34.8125L23.9395 35.5107L23.0654 40.2471C21.6864 40.4033 20.2941 40.4033 18.915 40.2471L18.041 35.501L16.1953 34.793C14.8037 34.2656 13.5098 33.5137 12.3525 32.5615L10.8193 31.2969L6.2588 32.918C5.42872 31.7998 4.73536 30.5938 4.17872 29.3242L7.86524 26.1748L7.54786 24.2217C7.43067 23.4941 7.3672 22.7422 7.3672 22C7.3672 21.2529 7.42579 20.5059 7.54786 19.7783L7.86524 17.8252L4.17872 14.6758C4.73048 13.4014 5.42872 12.2002 6.2588 11.082L10.8193 12.7031L12.3525 11.4385C13.5098 10.4863 14.8037 9.73437 16.1953 9.20703L18.0459 8.50879L18.9199 3.7627C20.292 3.60645 21.6934 3.60645 23.0703 3.7627L23.9443 8.49902L25.8047 9.19727C27.2061 9.72461 28.5098 10.4766 29.6768 11.4336L31.21 12.6934L35.7412 11.0869C36.5713 12.2051 37.2647 13.4111 37.8213 14.6807L34.1738 17.8008L34.4912 19.749ZM21 12.918C16.2539 12.918 12.4063 16.7656 12.4063 21.5117C12.4063 26.2578 16.2539 30.1055 21 30.1055C25.7461 30.1055 29.5938 26.2578 29.5938 21.5117C29.5938 16.7656 25.7461 12.918 21 12.918ZM24.8672 25.3789C24.36 25.8876 23.7572 26.291 23.0935 26.5658C22.4298 26.8407 21.7184 26.9816 21 26.9805C19.54 26.9805 18.168 26.4092 17.1328 25.3789C16.6241 24.8717 16.2208 24.2689 15.9459 23.6052C15.6711 22.9415 15.5301 22.2301 15.5313 21.5117C15.5313 20.0518 16.1025 18.6797 17.1328 17.6445C18.168 16.6094 19.54 16.043 21 16.043C22.46 16.043 23.832 16.6094 24.8672 17.6445C25.3759 18.1517 25.7792 18.7545 26.0541 19.4182C26.329 20.0819 26.4699 20.7934 26.4688 21.5117C26.4688 22.9717 25.8975 24.3438 24.8672 25.3789Z" fill="#F8F8F8"/>
</svg>
