<svg version="1.1" baseProfile="full" xmlns="http://www.w3.org/2000/svg" xmlns:xlink="http://www.w3.org/1999/xlink" xmlns:ev="http://www.w3.org/2001/xml-events" xml:space="preserve" x="0px" y="0px" width="23px" height="29px"  viewBox="0 0 23 29" preserveAspectRatio="none" shape-rendering="geometricPrecision">"<path d="M10.009 24.0785C9.63814 24.4877 9.66924 25.1201 10.0785 25.491C10.4877 25.8619 11.1201 25.8308 11.491 25.4215L10.009 24.0785ZM11.6098 23.8013L12.3508 24.4728L12.3756 24.4454L12.3983 24.4163L11.6098 23.8013ZM9.41196 9.92775L8.60474 9.3375L8.60474 9.3375L9.41196 9.92775ZM11.5575 6.99346L10.7503 6.40321V6.40321L11.5575 6.99346ZM6.36563 2.46136L5.67026 1.7427V1.7427L6.36563 2.46136ZM6.9752 28.6928C7.3578 29.0911 7.99084 29.1038 8.38912 28.7212C8.78741 28.3386 8.80012 27.7055 8.41751 27.3072L6.9752 28.6928ZM11.5091 5.73835L12.2673 5.08643V5.08643L11.5091 5.73835ZM8.85312 2.64902L9.61141 1.9971V1.9971L8.85312 2.64902ZM11.6841 22.6677L12.5473 22.1628L12.5473 22.1628L11.6841 22.6677ZM9.40353 18.769L10.2667 18.2641L10.2667 18.2641L9.40353 18.769ZM5.7219 17.4288L6.63589 17.023L6.63589 17.023L5.7219 17.4288ZM5.7219 11.1829L6.63589 11.5886L6.63589 11.5886L5.7219 11.1829ZM11.491 25.4215L12.3508 24.4728L10.8688 23.1297L10.009 24.0785L11.491 25.4215ZM8.57169 17.2859H7.18077V19.2859H8.57169V17.2859ZM7.18077 11.3258H8.6359V9.32575H7.18077V11.3258ZM10.2192 10.518L12.3647 7.5837L10.7503 6.40321L8.60474 9.3375L10.2192 10.518ZM5.67026 1.7427C3.94416 3.41288 1.05804 6.80521 0.228638 11.5019C-0.613391 16.27 0.701159 22.1616 6.9752 28.6928L8.41751 27.3072C2.4985 21.1457 1.48742 15.8744 2.19816 11.8497C2.92154 7.7534 5.46658 4.72276 7.061 3.18001L5.67026 1.7427ZM12.2673 5.08643L9.61141 1.9971L8.09482 3.30093L10.7508 6.39026L12.2673 5.08643ZM12.5473 22.1628L10.2667 18.2641L8.54036 19.2739L10.821 23.1727L12.5473 22.1628ZM6.63589 17.023C5.94717 15.4715 5.94717 13.1401 6.63589 11.5886L4.80791 10.7772C3.88983 12.8453 3.88983 15.7663 4.8079 17.8345L6.63589 17.023ZM7.061 3.18001C7.31535 2.9339 7.76069 2.91227 8.09482 3.30093L9.61141 1.9971C8.63086 0.856545 6.86182 0.589759 5.67026 1.7427L7.061 3.18001ZM12.3983 24.4163C12.9045 23.7673 12.9618 22.8714 12.5473 22.1628L10.821 23.1727C10.8214 23.1733 10.8227 23.176 10.8223 23.181C10.822 23.186 10.8205 23.1873 10.8213 23.1863L12.3983 24.4163ZM12.3647 7.5837C12.9141 6.83236 12.8753 5.79354 12.2673 5.08643L10.7508 6.39026C10.7508 6.39026 10.7507 6.39025 10.7507 6.39022C10.7507 6.39019 10.7507 6.39015 10.7506 6.3901C10.7506 6.39 10.7505 6.38991 10.7505 6.38983C10.7504 6.38965 10.7504 6.38969 10.7505 6.39003C10.7508 6.39084 10.7514 6.39281 10.7515 6.39565C10.7516 6.39849 10.7512 6.40072 10.7509 6.40196C10.7506 6.40286 10.7504 6.40303 10.7503 6.40321L12.3647 7.5837ZM8.6359 11.3258C9.26647 11.3258 9.85136 11.021 10.2192 10.518L8.60474 9.3375C8.60533 9.33669 8.6079 9.33372 8.61339 9.3309C8.61895 9.32805 8.62685 9.32575 8.6359 9.32575V11.3258ZM7.18077 9.32575C6.28893 9.32575 5.26307 9.75179 4.8079 10.7772L6.63589 11.5886C6.68684 11.4738 6.85126 11.3258 7.18077 11.3258V9.32575ZM7.18077 17.2859C6.85126 17.2859 6.68684 17.1378 6.63589 17.023L4.8079 17.8345C5.26307 18.8599 6.28893 19.2859 7.18077 19.2859V17.2859ZM8.57169 19.2859C8.56153 19.2859 8.55292 19.283 8.54744 19.2798C8.54208 19.2767 8.54025 19.2737 8.54036 19.2739L10.2667 18.2641C9.91621 17.6649 9.27592 17.2859 8.57169 17.2859V19.2859Z" fill="#00cdf2"/><path d="M16.2981 6.04547C15.7709 5.88083 15.2101 6.17472 15.0455 6.70189C14.8808 7.22906 15.1747 7.78989 15.7019 7.95453L16.2981 6.04547ZM15.7019 21.0455C15.1747 21.2101 14.8808 21.7709 15.0455 22.2981C15.2101 22.8253 15.7709 23.1192 16.2981 22.9545L15.7019 21.0455ZM15.7019 7.95453C18.8603 8.94095 21 11.5537 21 14.5H23C23 10.5212 20.1308 7.24248 16.2981 6.04547L15.7019 7.95453ZM21 14.5C21 17.4463 18.8603 20.0591 15.7019 21.0455L16.2981 22.9545C20.1308 21.7575 23 18.4788 23 14.5H21Z" fill="#00cdf2"/><path d="M15.2981 11.0455C14.7709 10.8808 14.2101 11.1747 14.0455 11.7019C13.8808 12.2291 14.1747 12.7899 14.7019 12.9545L15.2981 11.0455ZM14.7019 16.0455C14.1747 16.2101 13.8808 16.7709 14.0455 17.2981C14.2101 17.8253 14.7709 18.1192 15.2981 17.9545L14.7019 16.0455ZM14.7019 12.9545C15.5299 13.2131 16 13.862 16 14.5H18C18 12.8296 16.8005 11.5147 15.2981 11.0455L14.7019 12.9545ZM16 14.5C16 15.138 15.5299 15.7869 14.7019 16.0455L15.2981 17.9545C16.8005 17.4853 18 16.1704 18 14.5H16Z" fill="#00cdf2"/></svg>